PathFileType	4	(X/Y/Z)	C:\Users\italobelli\Desktop\GitHub\PTbot_officialCBL\Personal_Results\ABD22_noisy1.trc
DataRate	CameraRate	NumFrames	NumMarkers	Units	OrigDataRate	OrigDataStartFrame	OrigNumFrames
106.125000	106.125000	21	9	m	106.125000	213	850
Frame#	Time		gu		centelbow		EpL		centpxt8		centijc7		ij		ts		aa		ai
			X1	Y1	Z1	X2	Y2	Z2	X3	Y3	Z3	X4	Y4	Z4	X5	Y5	Z5	X6	Y6	Z6	X7	Y7	Z7	X8	Y8	Z8	X9	Y9	Z9

213	1.9976	-0.091779	0.036768	0.1424	-0.11864	-0.056402	0.36579	-0.13378	-0.028327	0.37042	-0.046816	-0.15316	-0.008669	-0.046816	0.031938	-0.008669	0	0	0	-0.12601	0.0072845	0.026648	-0.12872	0.058432	0.13436	-0.12581	-0.092896	0.080004
214	2.0071	-0.091715	0.037216	0.14221	-0.11847	-0.053226	0.36664	-0.13365	-0.025093	0.37103	-0.046816	-0.15316	-0.008669	-0.046816	0.031938	-0.008669	0	0	0	-0.12609	0.0070548	0.026721	-0.12872	0.058742	0.13417	-0.12578	-0.092907	0.080574
215	2.0165	-0.091652	0.037665	0.142	-0.11829	-0.049991	0.36744	-0.1335	-0.021806	0.37158	-0.046816	-0.15316	-0.008669	-0.046816	0.031938	-0.008669	0	0	0	-0.12618	0.0068256	0.026795	-0.12873	0.05905	0.13398	-0.12575	-0.092913	0.081144
216	2.0259	-0.09159	0.038115	0.14179	-0.11811	-0.046699	0.36818	-0.13334	-0.018465	0.37206	-0.046816	-0.15316	-0.008669	-0.046816	0.031938	-0.008669	0	0	0	-0.12626	0.0065966	0.02687	-0.12874	0.059356	0.1338	-0.12573	-0.092912	0.081713
217	2.0353	-0.09153	0.038565	0.14155	-0.11792	-0.043351	0.36888	-0.13318	-0.015074	0.37248	-0.046816	-0.15316	-0.008669	-0.046816	0.031938	-0.008669	0	0	0	-0.12635	0.0063679	0.026947	-0.12875	0.059659	0.13361	-0.12571	-0.092905	0.082281
218	2.0448	-0.091472	0.039016	0.14131	-0.11773	-0.039951	0.36953	-0.13301	-0.011634	0.37285	-0.046816	-0.15316	-0.008669	-0.046816	0.031938	-0.008669	0	0	0	-0.12644	0.0061395	0.027026	-0.12876	0.059962	0.13342	-0.12569	-0.092892	0.082849
219	2.0542	-0.091414	0.039466	0.14105	-0.11753	-0.0365	0.37013	-0.13283	-0.0081493	0.37315	-0.046816	-0.15316	-0.008669	-0.046816	0.031938	-0.008669	0	0	0	-0.12653	0.0059114	0.027106	-0.12878	0.060262	0.13323	-0.12568	-0.092873	0.083416
220	2.0636	-0.091358	0.039917	0.14078	-0.11734	-0.033001	0.37068	-0.13265	-0.0046209	0.37339	-0.046816	-0.15316	-0.008669	-0.046816	0.031938	-0.008669	0	0	0	-0.12663	0.0056836	0.027187	-0.1288	0.06056	0.13304	-0.12567	-0.092848	0.083983
221	2.073	-0.091304	0.040367	0.1405	-0.11713	-0.029456	0.37118	-0.13245	-0.0010517	0.37357	-0.046816	-0.15316	-0.008669	-0.046816	0.031938	-0.008669	0	0	0	-0.12672	0.0054562	0.02727	-0.12882	0.060857	0.13285	-0.12567	-0.092817	0.084549
222	2.0824	-0.091252	0.040817	0.14021	-0.11692	-0.025869	0.37164	-0.13225	0.0025557	0.3737	-0.046816	-0.15316	-0.008669	-0.046816	0.031938	-0.008669	0	0	0	-0.12682	0.005229	0.027354	-0.12884	0.061153	0.13266	-0.12566	-0.092781	0.085115
223	2.0919	-0.091201	0.041266	0.1399	-0.11671	-0.022242	0.37205	-0.13205	0.0061989	0.37377	-0.046816	-0.15316	-0.008669	-0.046816	0.031938	-0.008669	0	0	0	-0.12692	0.0050021	0.02744	-0.12886	0.061446	0.13247	-0.12567	-0.092738	0.085681
224	2.1013	-0.091151	0.041714	0.13959	-0.1165	-0.018577	0.37242	-0.13184	0.0098754	0.37379	-0.046816	-0.15316	-0.008669	-0.046816	0.031938	-0.008669	0	0	0	-0.12702	0.0047756	0.027527	-0.12888	0.061738	0.13228	-0.12567	-0.092691	0.086246
225	2.1107	-0.091104	0.042161	0.13926	-0.11628	-0.014876	0.37274	-0.13162	0.013583	0.37376	-0.046816	-0.15316	-0.008669	-0.046816	0.031938	-0.008669	0	0	0	-0.12712	0.0045493	0.027615	-0.12891	0.062029	0.13209	-0.12568	-0.092638	0.08681
226	2.1201	-0.091058	0.042607	0.13893	-0.11606	-0.011143	0.37301	-0.1314	0.017318	0.37367	-0.046816	-0.15316	-0.008669	-0.046816	0.031938	-0.008669	0	0	0	-0.12722	0.0043234	0.027705	-0.12894	0.062317	0.13189	-0.12569	-0.09258	0.087375
227	2.1296	-0.091014	0.043051	0.13859	-0.11584	-0.0073797	0.37325	-0.13117	0.02108	0.37354	-0.046816	-0.15316	-0.008669	-0.046816	0.031938	-0.008669	0	0	0	-0.12733	0.0040978	0.027796	-0.12897	0.062605	0.1317	-0.12571	-0.092516	0.087938
228	2.139	-0.090971	0.043494	0.13824	-0.11561	-0.0035887	0.37344	-0.13094	0.024865	0.37335	-0.046816	-0.15316	-0.008669	-0.046816	0.031938	-0.008669	0	0	0	-0.12743	0.0038725	0.027888	-0.129	0.062891	0.1315	-0.12573	-0.092448	0.088502
229	2.1484	-0.090931	0.043936	0.13787	-0.11538	0.00022743	0.37358	-0.13071	0.02867	0.37312	-0.046816	-0.15316	-0.008669	-0.046816	0.031938	-0.008669	0	0	0	-0.12754	0.0036476	0.027982	-0.12904	0.063176	0.13131	-0.12575	-0.092375	0.089065
230	2.1578	-0.090893	0.044375	0.13751	-0.11515	0.0040662	0.37369	-0.13047	0.032495	0.37284	-0.046816	-0.15316	-0.008669	-0.046816	0.031938	-0.008669	0	0	0	-0.12765	0.0034229	0.028077	-0.12907	0.063459	0.13111	-0.12578	-0.092296	0.089628
231	2.1673	-0.090856	0.044812	0.13713	-0.11492	0.0079251	0.37375	-0.13022	0.036335	0.37251	-0.046816	-0.15316	-0.008669	-0.046816	0.031938	-0.008669	0	0	0	-0.12776	0.0031986	0.028173	-0.12911	0.063741	0.13091	-0.12581	-0.092214	0.090191
232	2.1767	-0.090822	0.045247	0.13675	-0.11468	0.011801	0.37378	-0.12998	0.040188	0.37214	-0.046816	-0.15316	-0.008669	-0.046816	0.031938	-0.008669	0	0	0	-0.12787	0.0029747	0.028271	-0.12915	0.064021	0.13071	-0.12584	-0.092126	0.090753
233	2.1861	-0.090789	0.045679	0.13636	-0.11444	0.015693	0.37376	-0.12973	0.044052	0.37173	-0.046816	-0.15316	-0.008669	-0.046816	0.031938	-0.008669	0	0	0	-0.12798	0.002751	0.02837	-0.12919	0.064301	0.13051	-0.12588	-0.092034	0.091316
